<svg xmlns="http://www.w3.org/2000/svg" viewBox="0 0 200 200">
  <g stroke="white" stroke-width="0.4">
    <line x1="100.00" y1="1.00" x2="100.00" y2="9.00" stroke-width="2" />
    <line x1="110.35" y1="1.54" x2="109.83" y2="6.51" />
    <line x1="120.58" y1="3.16" x2="119.54" y2="8.05" />
    <line x1="130.59" y1="5.85" x2="129.05" y2="10.60" />
    <line x1="140.27" y1="9.56" x2="138.23" y2="14.13" />
    <line x1="149.50" y1="14.26" x2="145.50" y2="21.19" stroke-width="2" />
    <line x1="158.19" y1="19.91" x2="155.25" y2="23.95" />
    <line x1="166.24" y1="26.43" x2="162.90" y2="30.14" />
    <line x1="173.57" y1="33.76" x2="169.86" y2="37.10" />
    <line x1="180.09" y1="41.81" x2="176.05" y2="44.75" />
    <line x1="185.74" y1="50.50" x2="178.81" y2="54.50" stroke-width="2" />
    <line x1="190.44" y1="59.73" x2="185.87" y2="61.77" />
    <line x1="194.15" y1="69.41" x2="189.40" y2="70.95" />
    <line x1="196.84" y1="79.42" x2="191.95" y2="80.46" />
    <line x1="198.46" y1="89.65" x2="193.49" y2="90.17" />
    <line x1="199.00" y1="100.00" x2="191.00" y2="100.00" stroke-width="2" />
    <line x1="198.46" y1="110.35" x2="193.49" y2="109.83" />
    <line x1="196.84" y1="120.58" x2="191.95" y2="119.54" />
    <line x1="194.15" y1="130.59" x2="189.40" y2="129.05" />
    <line x1="190.44" y1="140.27" x2="185.87" y2="138.23" />
    <line x1="185.74" y1="149.50" x2="178.81" y2="145.50" stroke-width="2" />
    <line x1="180.09" y1="158.19" x2="176.05" y2="155.25" />
    <line x1="173.57" y1="166.24" x2="169.86" y2="162.90" />
    <line x1="166.24" y1="173.57" x2="162.90" y2="169.86" />
    <line x1="158.19" y1="180.09" x2="155.25" y2="176.05" />
    <line x1="149.50" y1="185.74" x2="145.50" y2="178.81" stroke-width="2" />
    <line x1="140.27" y1="190.44" x2="138.23" y2="185.87" />
    <line x1="130.59" y1="194.15" x2="129.05" y2="189.40" />
    <line x1="120.58" y1="196.84" x2="119.54" y2="191.95" />
    <line x1="110.35" y1="198.46" x2="109.83" y2="193.49" />
    <line x1="100.00" y1="199.00" x2="100.00" y2="191.00" stroke-width="2" />
    <line x1="89.65" y1="198.46" x2="90.17" y2="193.49" />
    <line x1="79.42" y1="196.84" x2="80.46" y2="191.95" />
    <line x1="69.41" y1="194.15" x2="70.95" y2="189.40" />
    <line x1="59.73" y1="190.44" x2="61.77" y2="185.87" />
    <line x1="50.50" y1="185.74" x2="54.50" y2="178.81" stroke-width="2" />
    <line x1="41.81" y1="180.09" x2="44.75" y2="176.05" />
    <line x1="33.76" y1="173.57" x2="37.10" y2="169.86" />
    <line x1="26.43" y1="166.24" x2="30.14" y2="162.90" />
    <line x1="19.91" y1="158.19" x2="23.95" y2="155.25" />
    <line x1="14.26" y1="149.50" x2="21.19" y2="145.50" stroke-width="2" />
    <line x1="9.56" y1="140.27" x2="14.13" y2="138.23" />
    <line x1="5.85" y1="130.59" x2="10.60" y2="129.05" />
    <line x1="3.16" y1="120.58" x2="8.05" y2="119.54" />
    <line x1="1.54" y1="110.35" x2="6.51" y2="109.83" />
    <line x1="1.00" y1="100.00" x2="9.00" y2="100.00" stroke-width="2" />
    <line x1="1.54" y1="89.65" x2="6.51" y2="90.17" />
    <line x1="3.16" y1="79.42" x2="8.05" y2="80.46" />
    <line x1="5.85" y1="69.41" x2="10.60" y2="70.95" />
    <line x1="9.56" y1="59.73" x2="14.13" y2="61.77" />
    <line x1="14.26" y1="50.50" x2="21.19" y2="54.50" stroke-width="2" />
    <line x1="19.91" y1="41.81" x2="23.95" y2="44.75" />
    <line x1="26.43" y1="33.76" x2="30.14" y2="37.10" />
    <line x1="33.76" y1="26.43" x2="37.10" y2="30.14" />
    <line x1="41.81" y1="19.91" x2="44.75" y2="23.95" />
    <line x1="50.50" y1="14.26" x2="54.50" y2="21.19" stroke-width="2" />
    <line x1="59.73" y1="9.56" x2="61.77" y2="14.13" />
    <line x1="69.41" y1="5.85" x2="70.95" y2="10.60" />
    <line x1="79.42" y1="3.16" x2="80.46" y2="8.05" />
    <line x1="89.65" y1="1.54" x2="90.17" y2="6.51" />
  </g>
  <g font-family="Futura,Trebuchet MS,Arial" font-size="18" text-anchor="middle" font-weight="400" fill="white">
    <text x="138.90" y="39.95">1</text>
    <text x="167.38" y="68.42">2</text>
    <text x="180.80" y="107.33">3</text>
    <text x="167.38" y="146.23">4</text>
    <text x="138.90" y="174.70">5</text>
    <text x="100.00" y="185.12">6</text>
    <text x="61.10" y="174.70">7</text>
    <text x="32.62" y="146.23">8</text>
    <text x="19.20" y="107.33">9</text>
    <text x="32.62" y="68.42">10</text>
    <text x="61.10" y="39.95">11</text>
    <text x="100.00" y="29.53">12</text>
  </g>
</svg>
